name 900006 ik
datacolumns 165
datarows 4
range 0.1000000000000000 0.1250000000000000
cursor 1.0 1.0 0.0
keys m_key
wrap
enforce_loops no
enforce_constraints no
calc_derivatives 0.008333
event_color 1.000000 0.000000 1.000000
endheader

time	calcn_r_tx	calcn_r_ty	calcn_r_tz	calcn_r_r1	calcn_r_r2	calcn_r_r3	calcn_l_tx	calcn_l_ty	calcn_l_tz	calcn_l_r1	calcn_l_r2	calcn_l_r3	pelvis_tz	pelvis_tx	pelvis_ty	pelvis_tilt	pelvis_list	pelvis_rotation	hip_flexion_r	hip_adduction_r	hip_rotation_r	knee_angle_r	ankle_angle_r	subtalar_angle_r	mtp_angle_r	hip_flexion_l	hip_adduction_l	hip_rotation_l	knee_angle_l	ankle_angle_l	subtalar_angle_l	mtp_angle_l	lumbar_extension	lumbar_bending	lumbar_rotation	ground_force_px	ground_force_py	ground_force_pz	ground_force_vx	ground_force_vy	ground_force_vz	ground_force_px	ground_force_py	ground_force_pz	ground_force_vx	ground_force_vy	ground_force_vz	ground_torque_x	ground_torque_y	ground_torque_z	ground_torque_x	ground_torque_y	ground_torque_z	 midhip_px	 midhip_py	 midhip_pz	 hip_r_px	 hip_r_py	 hip_r_pz	 hip_l_px	 hip_l_py	 hip_l_pz	 knee_r_px	 knee_r_py	 knee_r_pz	 knee_l_px	 knee_l_py	 knee_l_pz	 ankle_r_px	 ankle_r_py	 ankle_r_pz	 ankle_l_px	 ankle_l_py	 ankle_l_pz	 midasis_px	 midasis_py	 midasis_pz	 asis_r_px	 asis_r_py	 asis_r_pz	 asis_l_px	 asis_l_py	 asis_l_pz	 psis_r_px	 psis_r_py	 psis_r_pz	 psis_l_px	 psis_l_py	 psis_l_pz	 epicondLat_r_px	 epicondLat_r_py	 epicondLat_r_pz	 epicondLat_l_px	 epicondLat_l_py	 epicondLat_l_pz	 epicondMed_r_px	 epicondMed_r_py	 epicondMed_r_pz	 epicondMed_l_px	 epicondMed_l_py	 epicondMed_l_pz	 malleolusLat_r_px	 malleolusLat_r_py	 malleolusLat_r_pz	 malleolusLat_l_px	 malleolusLat_l_py	 malleolusLat_l_pz	 malleolusMedv_r_px	 malleolusMedv_r_py	 malleolusMedv_r_pz	 malleolusMedv_l_px	 malleolusMedv_l_py	 malleolusMedv_l_pz	 neck_px	 neck_py	 neck_pz	 subclavicle_r_px	 subclavicle_r_py	 subclavicle_r_pz	 subclavicle_l_px	 subclavicle_l_py	 subclavicle_l_pz	 sternalnotch_px	 sternalnotch_py	 sternalnotch_pz	 xyphoidprocess_px	 xyphoidprocess_py	 xyphoidprocess_pz	 thighwand_r_px	 thighwand_r_py	 thighwand_r_pz	 thighwand_l_px	 thighwand_l_py	 thighwand_l_pz	 upperleg1_r_px	 upperleg1_r_py	 upperleg1_r_pz	 upperleg1_l_px	 upperleg1_l_py	 upperleg1_l_pz	 upperleg2_r_px	 upperleg2_r_py	 upperleg2_r_pz	 upperleg2_l_px	 upperleg2_l_py	 upperleg2_l_pz	 shankwand_r_px	 shankwand_r_py	 shankwand_r_pz	 shankwand_l_px	 shankwand_l_py	 shankwand_l_pz	 lowerleg1_r_px	 lowerleg1_r_py	 lowerleg1_r_pz	 lowerleg1_l_px	 lowerleg1_l_py	 lowerleg1_l_pz	 toe_r_px	 toe_r_py	 toe_r_pz	 toe_l_px	 toe_l_py	 toe_l_pz	
      0.1000000000000000	     -0.0045405558033724	      0.0348905740340462	     -0.1716371326231449	      2.2236453049163685	     -6.8284943700637966	      2.3912723634652826	     -0.5079717748152286	      0.1572511348498681	     -0.3288062606473187	     -0.1414103375652004	      2.6264038139869696	    -47.9426172751214420	     -0.2554107728956617	     -0.0688074516705138	      0.8103964695243113	      4.7470541436866087	     -1.4195478194313500	     -1.2652926474177377	     20.1386196770841470	      0.5296813513915262	     -6.7043866707019486	    -20.5397241515119510	     -2.2462310271283572	      0.0000000000000000	      0.0000000000000000	    -15.3274946681141220	     -0.3875560748760644	     -3.8846658166202621	    -36.0723067639899920	     -1.3177133628760371	      0.0000000000000000	      0.0000000000000000	     -8.7548626396777216	      5.1906258711728128	     -4.8478935910978267	      0.0392180199999895	      0.0000000000000000	     -0.1707808200000030	    -55.6949703299976800	    384.7219961098268800	    -12.7520558599783880	      0.5339259000000001	      0.0000000000000000	     -0.2674419299999988	      0.0000000000000000	     -0.0000000000000000	      0.0000000000000000	      0.0000000000000000	      0.2678840299994724	      0.0000000000000000	      0.0000000000000000	      0.0000000000000000	      0.0000000000000000	     -0.1003090891909079	      0.7490510171953410	     -0.2591524818611975	     -0.1095406381290023	      0.7472058874930475	     -0.2025007305298414	     -0.0910776827848367	      0.7508953127920824	     -0.3158036488260188	     -0.0232250813889936	      0.4121350626252164	     -0.1731778221290395	     -0.2090031976350162	      0.4123970439626168	     -0.3261151357565418	      0.0445879656904455	      0.0645907517828834	     -0.1724864259787392	     -0.4551811403502704	      0.1454560186724921	     -0.3308197680495877	     -0.0707221408448864	      0.8234097560488490	     -0.2524376303344131	     -0.0733697378297241	      0.8267355918755649	     -0.1438430422636452	     -0.0680744803743960	      0.8200837952971443	     -0.3610325604815438	     -0.2488511431900241	      0.8436093040829463	     -0.2216902641508851	     -0.2447024481948749	      0.8437396349907224	     -0.2753859996921207	      0.0049833302191263	      0.4210624103847539	     -0.1132034220901427	     -0.2007357078257222	      0.3924953842492239	     -0.3842209678125094	     -0.0021654950014587	      0.4167216559055605	     -0.2373006633581610	     -0.1884561823318282	      0.3990218983054212	     -0.2539321702801307	      0.0353345762319311	      0.0634246996624992	     -0.1361663944366685	     -0.4597430606304130	      0.1505665466021731	     -0.3666724306423210	      0.0537570547605687	      0.0586807742146830	     -0.2047155285744473	     -0.4595877148917837	      0.1508255529226264	     -0.2972898191507357	     -0.1896575357646106	      1.2427511506244120	     -0.2314421404153485	     -0.0871531758774311	      1.1688506491206596	     -0.1765146446908542	     -0.0750495283819038	      1.1748082352994091	     -0.2818150705431543	     -0.0835699408361067	      1.1717869818071851	     -0.2325542960411921	     -0.0760998938252921	      1.0701440796764490	     -0.2399802590287647	      0.0684166780315610	      0.5925104242976848	     -0.1369988327445931	     -0.0553314824377470	      0.5242291631169311	     -0.3946206935802530	      0.0049356163159688	      0.6088225997239107	     -0.1065499293380001	     -0.0658331887582582	      0.5715273644365284	     -0.3268441983759443	      0.0139924971707741	      0.5511364566529107	     -0.1120284996840946	     -0.0868930922005807	      0.5149837415972333	     -0.3177618596391289	      0.1463657451257421	      0.1980373532585285	     -0.1348033499601265	     -0.3866443309661939	      0.2240699963089806	     -0.4550118872970436	      0.0767313839311710	      0.1732767264908317	     -0.1619503864224336	     -0.3957155086655086	      0.2181507346449691	     -0.3770897075467331	      0.1264516297651132	      0.0522598663952928	     -0.1530541333581353	     -0.4079523886381817	      0.0616762697974807	     -0.3344703387486865	
      0.1083333333333333	     -0.0038222125618851	      0.0347243137863373	     -0.1711668764146713	      2.2719668651900693	     -7.1148542491761377	      2.0063720795492395	     -0.4899532109902308	      0.1654329297875747	     -0.3278268708626954	      0.1190952794204949	      2.9543969998699979	    -51.1850258690957740	     -0.2525882008258966	     -0.0575843307117144	      0.8123945410613171	      4.7957579144579539	     -1.5502965013684216	     -1.6984111048981965	     19.2001714197894240	      0.8880612548065344	     -6.5539369441052004	    -20.4488113430360700	     -1.8342496733342086	     -0.0000000000000000	      0.0000000000000000	    -13.5946913290384580	     -0.6608286265937101	     -4.2828857421075881	    -39.1221146096888010	     -3.3436721080520382	      0.0000000000000000	      0.0000000000000000	     -8.8783427636817169	      5.4540069118429386	     -4.4332971308866620	      0.0422606212473496	      0.0000000000000000	     -0.1701193196937073	    -55.0473745847413840	    404.4646196319344500	    -15.9244507101975580	      0.5365918610610119	      0.0000000000000000	     -0.2671598798776887	     -0.0000000000000000	      0.0000000000000000	     -0.0000000000000000	      0.0000000000000000	      0.3502246481325981	      0.0000000000000000	      0.0000000000000000	     -0.0000000000000000	      0.0000000000000000	     -0.0893407442985295	      0.7516714901058315	     -0.2563694807637624	     -0.0989126330780749	      0.7498044453024972	     -0.1997764648209437	     -0.0797686372835843	      0.7535383877801727	     -0.3129620920487545	     -0.0193956339455784	      0.4134627182559881	     -0.1717670064538894	     -0.1851984026592747	      0.4096250073635006	     -0.3259228310913560	      0.0448361661461337	      0.0644228444513793	     -0.1722613198433054	     -0.4381726610514686	      0.1508850392757778	     -0.3300484403126293	     -0.0596633786785185	      0.8258916401803133	     -0.2496087689090615	     -0.0629781111760156	      0.8291795661891082	     -0.1408073378234554	     -0.0563486001813552	      0.8226035777281233	     -0.3584102663932614	     -0.2374387267894065	      0.8461159735017697	     -0.2219283841837919	     -0.2332177385360966	      0.8461046815506242	     -0.2750324658902561	      0.0102677776297804	      0.4212745630548028	     -0.1118994092321117	     -0.1791455216136889	      0.3917762884593483	     -0.3839304924297622	      0.0016823465387121	      0.4183702906315995	     -0.2363210275426953	     -0.1632305396570557	      0.3954727330828792	     -0.2556181681727173	      0.0357492234840826	      0.0632846997832911	     -0.1358949160084937	     -0.4428392139901370	      0.1562882082691982	     -0.3658437652888842	      0.0536945415037294	      0.0584518782935667	     -0.2045474152796289	     -0.4416723495277391	      0.1560611590716877	     -0.2964972469503501	     -0.1776611307283088	      1.2452730758933457	     -0.2285553111870343	     -0.0747950787195918	      1.1708628633686708	     -0.1743920141632071	     -0.0628960491471817	      1.1773025806535082	     -0.2795640646290935	     -0.0713206757272432	      1.1740578657880663	     -0.2303628920936865	     -0.0639415184733439	      1.0724456866745871	     -0.2382852073704467	      0.0766951521226424	      0.5916799388243402	     -0.1347057417180786	     -0.0368912296363139	      0.5273496613442806	     -0.3941783580274904	      0.0129692921698755	      0.6091231629138981	     -0.1037766373290815	     -0.0488630394805473	      0.5732214924988800	     -0.3266405966668974	      0.0207981416161235	      0.5511612235049259	     -0.1098143052721465	     -0.0670617549588403	      0.5169885559462725	     -0.3183561690921284	      0.1489979974136949	      0.1963819902518757	     -0.1346505134200120	     -0.3685190284249859	      0.2287445747212510	     -0.4542100768170902	      0.0785336300881537	      0.1725034597342753	     -0.1615572157106506	     -0.3768216781843615	      0.2223540042080286	     -0.3766058050697028	      0.1268902696728202	      0.0513210544124523	     -0.1528078518256776	     -0.3953752693974910	      0.0643254821545224	     -0.3337025634971776	
      0.1166666666666667	     -0.0032164373745734	      0.0347500809596902	     -0.1715108376783813	      2.3687616804254628	     -7.3497830622747022	      1.6503941384026068	     -0.4709677246189321	      0.1711542313244539	     -0.3262289782915293	      0.3553414026611880	      3.3246859397285142	    -53.1238377829597470	     -0.2500775341743422	     -0.0475674167229964	      0.8144829256714389	      4.8246321352183923	     -1.5544173358064499	     -2.0128278626639111	     18.3151835497954250	      1.1310389060690105	     -6.4537911723294163	    -20.2637595257122670	     -1.5212378806522209	      0.0000000000000000	      0.0000000000000000	    -11.7435526083675420	     -0.8638112814196637	     -4.7456097066575209	    -41.8510701654389690	     -4.4645797545530375	      0.0000000000000000	      0.0000000000000000	     -8.9158583705915824	      5.6091878826245605	     -4.0331407909965167	      0.0453745587775928	      0.0000000000000000	     -0.1692733903632609	    -53.6512246360740550	    420.4884832255232300	    -19.4339102109348080	      0.5392324789471829	      0.0000000000000000	     -0.2668205901517956	     -0.0000000000000000	      0.0000000000000000	     -0.0000000000000000	      0.0000000000000000	      0.4544230559466125	      0.0000000000000000	      0.0000000000000000	     -0.0000000000000000	      0.0000000000000000	     -0.0786146888129382	      0.7540875961038893	     -0.2537993466293047	     -0.0884777867159230	      0.7521844388874813	     -0.1972577058863089	     -0.0687512468657247	      0.7559910788448484	     -0.3103406717483745	     -0.0151863028883803	      0.4143095493444935	     -0.1704354407971745	     -0.1618691372473158	      0.4075152816646773	     -0.3255556767935785	      0.0451222047216210	      0.0643135925977743	     -0.1720531715843506	     -0.4199011429870827	      0.1553936163132452	     -0.3291297104939535	     -0.0487551589190964	      0.8281840778905746	     -0.2469371391272880	     -0.0526437810072940	      0.8313813156207859	     -0.1379293548442038	     -0.0448665340178316	      0.8249867622830702	     -0.3559447460308358	     -0.2261723549571127	      0.8486129291937158	     -0.2219221447484366	     -0.2219522345481673	      0.8484839648433820	     -0.2745282512461883	      0.0150849863135725	      0.4214604579673965	     -0.1106670923067546	     -0.1575364650800579	      0.3915206992049881	     -0.3834725121991356	      0.0061209426199703	      0.4191532282246045	     -0.2347710695837380	     -0.1384880986778744	      0.3929299506330536	     -0.2567435450388855	      0.0360598859786323	      0.0631920964238008	     -0.1356789368021651	     -0.4246981521959856	      0.1610654640945918	     -0.3648657045527191	      0.0536427494442415	      0.0583911976753053	     -0.2044033873271089	     -0.4227671407754705	      0.1604122480255756	     -0.2955515494027934	     -0.1655984072368680	      1.2477531804441349	     -0.2259221577710829	     -0.0625133027212437	      1.1728553453736941	     -0.1723563149341655	     -0.0507895520520796	      1.1796912211634394	     -0.2773864454753336	     -0.0591321215076425	      1.1762651125994750	     -0.2282522251865996	     -0.0519023190479360	      1.0746750443129354	     -0.2365938908006543	      0.0845684105395079	      0.5907550346791347	     -0.1325321501400591	     -0.0187241772968281	      0.5307763835365441	     -0.3936735757041557	      0.0205034083626025	      0.6092298220180549	     -0.1014335989556654	     -0.0320885500708997	      0.5754200324009171	     -0.3263399994363395	      0.0273220806534509	      0.5511163165970847	     -0.1076855366100378	     -0.0476452545678723	      0.5193051949912014	     -0.3186671751711183	      0.1512294094130042	      0.1948324753537203	     -0.1341214606453076	     -0.3495630768493193	      0.2328417808987756	     -0.4532575029275449	      0.0800762520505180	      0.1718026565628122	     -0.1609287326732489	     -0.3572183165721390	      0.2260772760071139	     -0.3758205140770721	      0.1272559519667604	      0.0505314550055375	     -0.1525625397278863	     -0.3802195378314563	      0.0670249461685911	     -0.3328398334742674	
      0.1250000000000000	     -0.0029668001868858	      0.0345586903389732	     -0.1713742569606819	      2.4138406607409038	     -7.6246946171488581	      1.2458343517188528	     -0.4514335288872101	      0.1757164571516192	     -0.3252807288885715	      0.5544901751340585	      3.5183912776935324	    -54.2826883809503830	     -0.2476158807741459	     -0.0368965209472067	      0.8162729221392364	      4.6871228126834099	     -1.5274457431457962	     -2.3154462236702482	     17.4975041153109990	      1.2886790538478952	     -6.3738468261371137	    -20.0118630192551590	     -1.2248047375043911	      0.0000000000000000	      0.0000000000000000	     -9.8292868702905878	     -1.0776556395392400	     -5.1202154302500542	    -44.2913081739632370	     -4.9829382288333051	      0.0000000000000000	      0.0000000000000000	     -8.9277356940891437	      5.6958782205766534	     -3.6946012703538234	      0.0483363800000150	      0.0000000000000000	     -0.1683298299999975	    -51.4631023400187080	    428.6713636503284900	    -22.7266512700240140	      0.5418770799999952	      0.0000000000000000	     -0.2663947100000055	     -0.0000000000000000	      0.0000000000000000	     -0.0000000000000000	      0.0000000000000000	      0.5671310999995565	      0.0000000000000000	      0.0000000000000000	     -0.0000000000000000	      0.0000000000000000	     -0.0681200673228059	      0.7563041597474474	     -0.2514457242889000	     -0.0782269594112959	      0.7543496457516135	     -0.1949484108262536	     -0.0580128967161731	      0.7582592662723930	     -0.3079427413235983	     -0.0107213433920901	      0.4147495618465905	     -0.1691898832199149	     -0.1389881194022162	      0.4060578953395631	     -0.3250134087911666	      0.0454466289218208	      0.0642605018822959	     -0.1718619510611132	     -0.4003807171967530	      0.1589749857820152	     -0.3280636106284818	     -0.0379922456697413	      0.8302904611178137	     -0.2444257587758697	     -0.0423635458443180	      0.8333432202067692	     -0.1352138065394888	     -0.0336210070685135	      0.8272377433634950	     -0.3536373321292355	     -0.2150557597285298	      0.8510979245984942	     -0.2216646870670582	     -0.2109018821956439	      0.8508725884926001	     -0.2738755551289421	      0.0194487048525895	      0.4216226218584247	     -0.1095123564564258	     -0.1359093237586693	      0.3917300158685825	     -0.3828478232638037	      0.0110022074658467	      0.4191828160432584	     -0.2327608523727840	     -0.1142272852184797	      0.3913982484365282	     -0.2572783120563715	      0.0362744833973749	      0.0631459384524298	     -0.1355165766152974	     -0.4053336212224259	      0.1648897234322842	     -0.3637386851033461	      0.0536081718880156	      0.0584899186405372	     -0.2042825789310604	     -0.4028603123443642	      0.1638640925597390	     -0.2944540639841595	     -0.1534661744052183	      1.2501918483738166	     -0.2235419368766373	     -0.0503044769724505	      1.1748257751084652	     -0.1704156554869902	     -0.0387259887752107	      1.1819707622625142	     -0.2752943659732122	     -0.0470005646847446	      1.1784058912049145	     -0.2262324313581728	     -0.0399814998410487	      1.0768290745475149	     -0.2349153893128922	      0.0920446281484340	      0.5897374961891903	     -0.1304915823146620	     -0.0008180451411569	      0.5345043180270253	     -0.3930835376311088	      0.0275893890672384	      0.6091677253687927	     -0.0995081284083292	     -0.0155055904575322	      0.5781254650552896	     -0.3259246097664590	      0.0335694363502823	      0.5510039269099146	     -0.1056724734489624	     -0.0286293821125916	      0.5219554641170043	     -0.3186756632556091	      0.1530725851718966	      0.1933886266537478	     -0.1332414206784852	     -0.3297859591154118	      0.2363547286301419	     -0.4521551033545689	      0.0813747248512281	      0.1711757494612328	     -0.1600826469768090	     -0.3368938196282816	      0.2293038446711909	     -0.3747442745137067	      0.1275521277233319	      0.0498867149790600	     -0.1523228516239449	     -0.3625181915989341	      0.0697479207188893	     -0.3318810343386052	
